<svg width="75" height="71" viewBox="0 0 75 71" fill="none" xmlns="http://www.w3.org/2000/svg">
<path d="M70.9406 0.324214C69.8908 -0.0403786 68.759 -0.0988176 67.6772 0.155718C66.5954 0.410254 65.6083 0.967262 64.8312 1.76171L58.7578 7.83515C52.3571 3.7964 44.9434 1.65297 37.375 1.65297C29.8066 1.65297 22.3929 3.7964 15.9922 7.83515L9.91875 1.76171C9.14166 0.967262 8.1546 0.410254 7.07283 0.155718C5.99105 -0.0988176 4.85919 -0.0403786 3.80938 0.324214C2.69478 0.718283 1.72985 1.44837 1.04758 2.41384C0.365317 3.37931 -0.000693118 4.53263 9.85401e-07 5.71484V36.1539C9.85401e-07 53.7992 14.4109 68.3539 32.9187 70.4024C33.1192 70.4225 33.3217 70.4003 33.5131 70.3371C33.7044 70.274 33.8804 70.1713 34.0295 70.0357C34.1786 69.9002 34.2975 69.7348 34.3786 69.5503C34.4596 69.3658 34.501 69.1664 34.5 68.9649V57.4648L29.6844 52.6492C29.1414 52.1141 28.8239 51.3913 28.7972 50.6294C28.7705 49.8675 29.0365 49.1242 29.5406 48.5523C29.8064 48.2749 30.1246 48.0527 30.4767 47.8988C30.8288 47.7449 31.2079 47.6622 31.5921 47.6555C31.9763 47.6489 32.358 47.7183 32.7152 47.8599C33.0725 48.0015 33.3981 48.2124 33.6734 48.4805L37.375 52.218L41.0766 48.4805C41.3519 48.2124 41.6775 48.0015 42.0348 47.8599C42.392 47.7183 42.7737 47.6489 43.1579 47.6555C43.5421 47.6622 43.9212 47.7449 44.2733 47.8988C44.6254 48.0527 44.9436 48.2749 45.2094 48.5523C45.7135 49.1242 45.9795 49.8675 45.9528 50.6294C45.9261 51.3913 45.6086 52.1141 45.0656 52.6492L40.25 57.4648V68.9649C40.249 69.1664 40.2904 69.3658 40.3714 69.5503C40.4525 69.7348 40.5714 69.9002 40.7205 70.0357C40.8696 70.1713 41.0456 70.274 41.2369 70.3371C41.4283 70.4003 41.6308 70.4225 41.8312 70.4024C60.3391 68.3539 74.75 53.7992 74.75 36.1539V5.71484C74.7507 4.53263 74.3847 3.37931 73.7024 2.41384C73.0202 1.44837 72.0552 0.718283 70.9406 0.324214V0.324214ZM21.5625 41.9039C20.7096 41.9039 19.8758 41.651 19.1666 41.1771C18.4574 40.7033 17.9047 40.0297 17.5783 39.2417C17.2519 38.4537 17.1665 37.5866 17.3329 36.7501C17.4993 35.9135 17.91 35.1451 18.5131 34.542C19.1162 33.9389 19.8846 33.5282 20.7212 33.3618C21.5577 33.1954 22.4248 33.2808 23.2128 33.6072C24.0008 33.9336 24.6744 34.4863 25.1482 35.1955C25.6221 35.9047 25.875 36.7385 25.875 37.5914C25.875 38.7352 25.4206 39.8321 24.6119 40.6408C23.8031 41.4496 22.7062 41.9039 21.5625 41.9039ZM28.75 18.9039C28.75 19.6664 28.4471 20.3977 27.9079 20.9368C27.3688 21.476 26.6375 21.7789 25.875 21.7789C25.1125 21.7789 24.3812 21.476 23.8421 20.9368C23.3029 20.3977 23 19.6664 23 18.9039V12.0758C23 11.3133 23.3029 10.582 23.8421 10.0428C24.3812 9.50368 25.1125 9.20078 25.875 9.20078C26.6375 9.20078 27.3688 9.50368 27.9079 10.0428C28.4471 10.582 28.75 11.3133 28.75 12.0758V18.9039ZM40.25 18.9039C40.25 19.6664 39.9471 20.3977 39.4079 20.9368C38.8688 21.476 38.1375 21.7789 37.375 21.7789C36.6125 21.7789 35.8812 21.476 35.3421 20.9368C34.8029 20.3977 34.5 19.6664 34.5 18.9039V10.2789C34.5 9.51641 34.8029 8.78514 35.3421 8.24597C35.8812 7.7068 36.6125 7.4039 37.375 7.4039C38.1375 7.4039 38.8688 7.7068 39.4079 8.24597C39.9471 8.78514 40.25 9.51641 40.25 10.2789V18.9039ZM46 18.9039V12.0758C46 11.3133 46.3029 10.582 46.8421 10.0428C47.3812 9.50368 48.1125 9.20078 48.875 9.20078C49.6375 9.20078 50.3688 9.50368 50.9079 10.0428C51.4471 10.582 51.75 11.3133 51.75 12.0758V18.9039C51.75 19.6664 51.4471 20.3977 50.9079 20.9368C50.3688 21.476 49.6375 21.7789 48.875 21.7789C48.1125 21.7789 47.3812 21.476 46.8421 20.9368C46.3029 20.3977 46 19.6664 46 18.9039ZM53.1875 41.9039C52.3346 41.9039 51.5008 41.651 50.7916 41.1771C50.0824 40.7033 49.5297 40.0297 49.2033 39.2417C48.8769 38.4537 48.7915 37.5866 48.9579 36.7501C49.1243 35.9135 49.535 35.1451 50.1381 34.542C50.7412 33.9389 51.5096 33.5282 52.3462 33.3618C53.1827 33.1954 54.0498 33.2808 54.8378 33.6072C55.6258 33.9336 56.2993 34.4863 56.7732 35.1955C57.2471 35.9047 57.5 36.7385 57.5 37.5914C57.5 38.7352 57.0456 39.8321 56.2369 40.6408C55.4281 41.4496 54.3312 41.9039 53.1875 41.9039Z" fill="#E5E5E5"/>
</svg>
