<svg width="57" height="54" viewBox="0 0 57 54" fill="none" xmlns="http://www.w3.org/2000/svg">
<path d="M19.875 28.7344C19.875 29.3741 19.6853 29.9994 19.3299 30.5313C18.9745 31.0632 18.4694 31.4778 17.8784 31.7226C17.2874 31.9674 16.637 32.0314 16.0096 31.9066C15.3822 31.7818 14.8059 31.4738 14.3536 31.0214C13.9012 30.5691 13.5932 29.9928 13.4684 29.3654C13.3436 28.738 13.4076 28.0877 13.6525 27.4967C13.8973 26.9057 14.3118 26.4005 14.8437 26.0451C15.3756 25.6897 16.0009 25.5 16.6406 25.5C17.4984 25.5 18.3211 25.8408 18.9277 26.4473C19.5342 27.0539 19.875 27.8766 19.875 28.7344ZM40.3594 25.5C39.7197 25.5 39.0943 25.6897 38.5625 26.0451C38.0306 26.4005 37.616 26.9057 37.3712 27.4967C37.1264 28.0877 37.0623 28.738 37.1871 29.3654C37.3119 29.9928 37.62 30.5691 38.0723 31.0214C38.5247 31.4738 39.101 31.7818 39.7284 31.9066C40.3558 32.0314 41.0061 31.9674 41.5971 31.7226C42.1881 31.4778 42.6933 31.0632 43.0487 30.5313C43.4041 29.9994 43.5938 29.3741 43.5938 28.7344C43.5938 27.8766 43.253 27.0539 42.6464 26.4473C42.0399 25.8408 41.2172 25.5 40.3594 25.5ZM56.5312 4.82697V27.6563C56.5312 41.9145 43.9441 53.5313 28.5 53.5313C13.0559 53.5313 0.46875 41.9145 0.46875 27.6563V4.82697C0.470208 3.97512 0.723921 3.14277 1.19788 2.43494C1.67185 1.72711 2.34482 1.1755 3.13192 0.849707C3.91902 0.523913 4.78497 0.438524 5.62055 0.604314C6.45612 0.770103 7.22387 1.17964 7.82695 1.78127L12.4629 6.41721C14.506 5.11073 16.7068 4.06918 19.0125 3.3176L19.4438 3.18283C25.3368 1.3149 31.6632 1.3149 37.5563 3.18283L37.9875 3.3176C40.2932 4.06918 42.494 5.11073 44.5371 6.41721L49.173 1.78127C49.7761 1.17964 50.5439 0.770103 51.3795 0.604314C52.215 0.438524 53.081 0.523913 53.8681 0.849707C54.6552 1.1755 55.3282 1.72711 55.8021 2.43494C56.2761 3.14277 56.5298 3.97512 56.5312 4.82697ZM52.2188 4.82697L46.316 10.7567C45.944 11.12 45.4546 11.3386 44.9358 11.3732C44.417 11.4078 43.9029 11.2561 43.4859 10.9453C42.1777 9.96983 40.768 9.13845 39.2812 8.46565V14.7188C39.2812 15.2906 39.0541 15.8391 38.6497 16.2435C38.2453 16.6478 37.6969 16.875 37.125 16.875C36.5531 16.875 36.0047 16.6478 35.6003 16.2435C35.1959 15.8391 34.9688 15.2906 34.9688 14.7188V6.92932C33.5552 6.556 32.1125 6.30352 30.6562 6.17463V14.7188C30.6562 15.2906 30.4291 15.8391 30.0247 16.2435C29.6203 16.6478 29.0719 16.875 28.5 16.875C27.9281 16.875 27.3797 16.6478 26.9753 16.2435C26.5709 15.8391 26.3438 15.2906 26.3438 14.7188V6.17463C24.8875 6.30352 23.4448 6.556 22.0312 6.92932V14.7188C22.0312 15.2906 21.8041 15.8391 21.3997 16.2435C20.9953 16.6478 20.4469 16.875 19.875 16.875C19.3031 16.875 18.7547 16.6478 18.3503 16.2435C17.9459 15.8391 17.7188 15.2906 17.7188 14.7188V8.46565C16.232 9.13845 14.8223 9.96983 13.5141 10.9453C13.0971 11.2561 12.583 11.4078 12.0642 11.3732C11.5454 11.3386 11.056 11.12 10.684 10.7567L4.78125 4.82697V27.6563C4.78125 38.8957 14.2688 48.1406 26.3438 49.1379V43.6395L22.6512 39.9738C22.3073 39.5549 22.1316 39.023 22.1582 38.4817C22.1848 37.9404 22.4118 37.4283 22.795 37.045C23.1783 36.6618 23.6903 36.4348 24.2317 36.4082C24.773 36.3816 25.3049 36.5573 25.7238 36.9012L28.5 39.7043L31.2762 36.9012C31.6951 36.5573 32.227 36.3816 32.7683 36.4082C33.3097 36.4348 33.8217 36.6618 34.205 37.045C34.5882 37.4283 34.8152 37.9404 34.8418 38.4817C34.8684 39.023 34.6927 39.5549 34.3488 39.9738L30.6562 43.6395V49.1379C42.7312 48.1406 52.2188 38.8957 52.2188 27.6563V4.82697Z" fill="#E5E5E5"/>
</svg>
