<svg width="64" height="55" viewBox="0 0 64 55" fill="none" xmlns="http://www.w3.org/2000/svg">
<path d="M24.9933 31.6595C24.9933 32.3178 24.7981 32.9612 24.4324 33.5085C24.0667 34.0558 23.5469 34.4824 22.9388 34.7343C22.3306 34.9862 21.6615 35.0521 21.0159 34.9237C20.3703 34.7953 19.7773 34.4783 19.3118 34.0129C18.8464 33.5474 18.5294 32.9544 18.401 32.3088C18.2726 31.6632 18.3385 30.9941 18.5904 30.3859C18.8423 29.7778 19.2688 29.258 19.8161 28.8923C20.3634 28.5266 21.0069 28.3314 21.6651 28.3314C22.5478 28.3314 23.3943 28.6821 24.0185 29.3062C24.6426 29.9303 24.9933 30.7769 24.9933 31.6595ZM41.6339 34.9877C42.2921 34.9877 42.9356 34.7925 43.4829 34.4268C44.0302 34.0611 44.4568 33.5413 44.7087 32.9331C44.9606 32.325 45.0265 31.6558 44.8981 31.0102C44.7697 30.3647 44.4527 29.7716 43.9872 29.3062C43.5218 28.8407 42.9288 28.5238 42.2832 28.3954C41.6376 28.2669 40.9684 28.3329 40.3603 28.5847C39.7521 28.8366 39.2324 29.2632 38.8667 29.8105C38.501 30.3578 38.3058 31.0013 38.3058 31.6595C38.3058 32.5422 38.6564 33.3887 39.2806 34.0129C39.9047 34.637 40.7512 34.9877 41.6339 34.9877ZM60.6874 32.7689C60.103 33.03 59.4693 33.1624 58.8292 33.1572C57.8164 33.1593 56.8349 32.8059 56.0558 32.1588V43.8627C56.0558 46.8049 54.887 49.6266 52.8065 51.7071C50.726 53.7876 47.9043 54.9564 44.962 54.9564H18.337C15.3948 54.9564 12.573 53.7876 10.4926 51.7071C8.41207 49.6266 7.24327 46.8049 7.24327 43.8627V32.1588C6.46416 32.8059 5.48268 33.1593 4.46983 33.1572C3.82976 33.1624 3.19604 33.03 2.61163 32.7689C1.69735 32.3651 0.948579 31.6609 0.489529 30.773C0.0304783 29.8852 -0.111268 28.8671 0.0878018 27.8877L4.63624 3.62008C4.75059 3.02685 4.98413 2.463 5.32274 1.96265C5.66134 1.4623 6.09795 1.03587 6.60615 0.709175C7.11435 0.382476 7.68356 0.162304 8.27933 0.061987C8.87509 -0.0383301 9.48501 -0.0167058 10.0722 0.125552L25.2706 3.92516H38.0284L53.2269 0.125552C53.814 -0.0167058 54.424 -0.0383301 55.0197 0.061987C55.6155 0.162304 56.1847 0.382476 56.6929 0.709175C57.2011 1.03587 57.6377 1.4623 57.9763 1.96265C58.3149 2.463 58.5485 3.02685 58.6628 3.62008L63.2112 27.8877C63.4103 28.8671 63.2686 29.8852 62.8095 30.773C62.3505 31.6609 61.6017 32.3651 60.6874 32.7689V32.7689ZM51.6183 26.6673L37.2241 8.36266H26.0749L11.6808 26.6673V43.8627C11.6881 45.6258 12.3917 47.3146 13.6384 48.5613C14.8851 49.808 16.5739 50.5116 18.337 50.5189H29.4308V46.9966L25.6312 43.2248C25.2774 42.7937 25.0965 42.2464 25.1239 41.6894C25.1513 41.1323 25.3848 40.6054 25.7792 40.2111C26.1735 39.8167 26.7005 39.5831 27.2575 39.5558C27.8145 39.5284 28.3618 39.7092 28.7929 40.063L31.6495 42.9474L34.5062 40.063C34.9373 39.7092 35.4845 39.5284 36.0416 39.5558C36.5986 39.5831 37.1255 39.8167 37.5199 40.2111C37.9142 40.6054 38.1478 41.1323 38.1751 41.6894C38.2025 42.2464 38.0217 42.7937 37.6679 43.2248L33.8683 46.9966V50.5189H44.962C46.7251 50.5116 48.4139 49.808 49.6606 48.5613C50.9073 47.3146 51.611 45.6258 51.6183 43.8627V26.6673Z" fill="#E5E5E5"/>
</svg>
