<svg width="94" height="82" viewBox="0 0 94 82" fill="none" xmlns="http://www.w3.org/2000/svg">
<path d="M37.1154 47.2389C37.1154 48.2211 36.8255 49.1812 36.2824 49.9978C35.7394 50.8144 34.9675 51.4509 34.0644 51.8268C33.1613 52.2026 32.1676 52.301 31.2089 52.1094C30.2501 51.9178 29.3695 51.4448 28.6783 50.7503C27.9871 50.0558 27.5164 49.171 27.3257 48.2077C27.135 47.2444 27.2329 46.246 27.607 45.3386C27.981 44.4312 28.6145 43.6556 29.4273 43.11C30.24 42.5643 31.1956 42.2731 32.1731 42.2731C33.4838 42.2731 34.7409 42.7963 35.6678 43.7275C36.5947 44.6588 37.1154 45.9219 37.1154 47.2389ZM61.8269 42.2731C60.8494 42.2731 59.8939 42.5643 59.0811 43.11C58.2684 43.6556 57.6349 44.4312 57.2608 45.3386C56.8868 46.246 56.7889 47.2444 56.9796 48.2077C57.1703 49.171 57.641 50.0558 58.3322 50.7503C59.0234 51.4448 59.904 51.9178 60.8627 52.1094C61.8215 52.301 62.8152 52.2026 63.7183 51.8268C64.6214 51.4509 65.3933 50.8144 65.9363 49.9978C66.4794 49.1812 66.7693 48.2211 66.7693 47.2389C66.7693 45.9219 66.2485 44.6588 65.3217 43.7275C64.3948 42.7963 63.1377 42.2731 61.8269 42.2731ZM90.1217 48.8942C89.2538 49.2838 88.3127 49.4814 87.3622 49.4736C85.8581 49.4767 84.4006 48.9495 83.2436 47.9838V65.4471C83.2436 69.8372 81.5079 74.0475 78.4184 77.1518C75.3289 80.256 71.1385 82 66.7693 82H27.2307C22.8615 82 18.6711 80.256 15.5816 77.1518C12.4921 74.0475 10.7564 69.8372 10.7564 65.4471V47.9838C9.59937 48.9495 8.14186 49.4767 6.63777 49.4736C5.68725 49.4814 4.74617 49.2838 3.87831 48.8942C2.52058 48.2917 1.40865 47.2409 0.726957 45.9162C0.0452607 44.5915 -0.165235 43.0724 0.130387 41.6109L6.88488 5.4015C7.05469 4.51634 7.40151 3.67502 7.90434 2.92846C8.40717 2.18189 9.05555 1.54562 9.81023 1.05815C10.5649 0.57069 11.4102 0.242173 12.2949 0.0924903C13.1796 -0.0571921 14.0854 -0.0249266 14.9573 0.187335L37.5272 5.8567H56.4728L79.0427 0.187335C79.9146 -0.0249266 80.8204 -0.0571921 81.7051 0.0924903C82.5898 0.242173 83.4351 0.57069 84.1898 1.05815C84.9444 1.54562 85.5928 2.18189 86.0957 2.92846C86.5985 3.67502 86.9453 4.51634 87.1151 5.4015L93.8696 41.6109C94.1652 43.0724 93.9547 44.5915 93.273 45.9162C92.5913 47.2409 91.4794 48.2917 90.1217 48.8942V48.8942ZM31.3905 11.1536L13.3511 6.60158L6.59658 42.8524L31.3905 11.1536ZM76.6539 65.4471V39.7901L55.2784 12.4779H38.7216L17.3461 39.7901V65.4471C17.357 68.0778 18.4019 70.5977 20.2532 72.4579C22.1046 74.3181 24.6125 75.368 27.2307 75.3788H43.7051V70.1233L38.0627 64.4953C37.5372 63.8521 37.2687 63.0355 37.3094 62.2044C37.35 61.3732 37.6968 60.587 38.2825 59.9986C38.8681 59.4102 39.6506 59.0617 40.4778 59.0209C41.3049 58.98 42.1177 59.2498 42.7578 59.7777L47 64.0815L51.2422 59.7777C51.8823 59.2498 52.6951 58.98 53.5222 59.0209C54.3494 59.0617 55.1319 59.4102 55.7175 59.9986C56.3032 60.587 56.65 61.3732 56.6906 62.2044C56.7313 63.0355 56.4628 63.8521 55.9373 64.4953L50.2949 70.1233V75.3788H66.7693C69.3875 75.368 71.8954 74.3181 73.7468 72.4579C75.5981 70.5977 76.643 68.0778 76.6539 65.4471V65.4471ZM87.4034 42.8524L80.6489 6.60158L62.6095 11.1536L87.4034 42.8524Z" fill="black"/>
</svg>
